<svg xmlns="http://www.w3.org/2000/svg" xmlns:xlink="http://www.w3.org/1999/xlink" width="500" zoomAndPan="magnify" viewBox="0 0 375 374.999991" height="500" preserveAspectRatio="xMidYMid meet" version="1.0"><defs><clipPath id="d638f4681e"><path d="M 80.003906 80.003906 L 295 80.003906 L 295 295 L 80.003906 295 Z M 80.003906 80.003906 " clip-rule="nonzero"/></clipPath><clipPath id="d2ebecd364"><path d="M 86.066406 87.121094 L 287 87.121094 L 287 288 L 86.066406 288 Z M 86.066406 87.121094 " clip-rule="nonzero"/></clipPath></defs><g clip-path="url(#d638f4681e)"><path fill="#ddc298" d="M 193.65625 83.378906 L 207.296875 96.945312 C 209.488281 99.125 212.679688 99.976562 215.667969 99.183594 L 234.269531 94.257812 C 238.898438 93.027344 243.648438 95.777344 244.902344 100.394531 L 249.933594 118.964844 C 250.742188 121.949219 253.074219 124.277344 256.058594 125.089844 L 274.628906 130.117188 C 279.25 131.371094 281.992188 136.125 280.765625 140.753906 L 275.839844 159.355469 C 275.046875 162.34375 275.898438 165.527344 278.078125 167.722656 L 291.640625 181.367188 C 295.019531 184.761719 295.019531 190.246094 291.640625 193.648438 L 278.078125 207.292969 C 275.898438 209.480469 275.046875 212.671875 275.839844 215.660156 L 280.765625 234.261719 C 281.992188 238.890625 279.246094 243.644531 274.628906 244.898438 L 256.058594 249.925781 C 253.074219 250.738281 250.742188 253.066406 249.933594 256.050781 L 244.902344 274.621094 C 243.648438 279.246094 238.898438 281.988281 234.269531 280.757812 L 215.667969 275.832031 C 212.679688 275.039062 209.496094 275.890625 207.296875 278.070312 L 193.65625 291.636719 C 190.257812 295.011719 184.773438 295.011719 181.375 291.636719 L 167.730469 278.070312 C 165.539062 275.890625 162.351562 275.039062 159.359375 275.832031 L 140.757812 280.757812 C 136.128906 281.988281 131.378906 279.238281 130.125 274.621094 L 125.09375 256.050781 C 124.285156 253.066406 121.953125 250.738281 118.96875 249.925781 L 100.398438 244.898438 C 95.777344 243.644531 93.035156 238.890625 94.261719 234.261719 L 99.191406 215.660156 C 99.984375 212.671875 99.128906 209.488281 96.949219 207.292969 L 83.386719 193.648438 C 80.007812 190.253906 80.007812 184.769531 83.386719 181.367188 L 96.949219 167.722656 C 99.128906 165.535156 99.984375 162.34375 99.191406 159.355469 L 94.261719 140.753906 C 93.035156 136.125 95.78125 131.371094 100.398438 130.117188 L 118.96875 125.089844 C 121.953125 124.277344 124.285156 121.949219 125.09375 118.964844 L 130.125 100.394531 C 131.378906 95.769531 136.128906 93.027344 140.757812 94.257812 L 159.359375 99.183594 C 162.351562 99.976562 165.535156 99.125 167.730469 96.945312 L 181.375 83.378906 C 184.769531 80.003906 190.253906 80.003906 193.65625 83.378906 Z M 193.65625 83.378906 " fill-opacity="1" fill-rule="nonzero"/></g><path fill="#ffffff" d="M 167.171875 229.039062 C 165.074219 229.039062 162.972656 228.238281 161.375 226.636719 L 135.414062 200.675781 C 132.214844 197.472656 132.214844 192.28125 135.414062 189.074219 C 138.617188 185.863281 143.808594 185.871094 147.011719 189.074219 L 167.171875 209.234375 L 228.015625 148.390625 C 231.21875 145.191406 236.410156 145.191406 239.617188 148.390625 C 242.820312 151.59375 242.820312 156.789062 239.617188 159.996094 L 172.976562 226.636719 C 171.375 228.238281 169.28125 229.039062 167.179688 229.039062 Z M 167.171875 229.039062 " fill-opacity="1" fill-rule="nonzero"/><g clip-path="url(#d2ebecd364)"><path fill="#c38c39" d="M 192.191406 90.273438 L 204.933594 102.9375 C 206.976562 104.972656 209.957031 105.769531 212.75 105.03125 L 230.117188 100.429688 C 234.441406 99.28125 238.878906 101.847656 240.046875 106.160156 L 244.742188 123.5 C 245.5 126.289062 247.675781 128.464844 250.464844 129.21875 L 267.804688 133.917969 C 272.121094 135.085938 274.683594 139.523438 273.535156 143.847656 L 268.933594 161.214844 C 268.195312 164.007812 268.992188 166.980469 271.023438 169.03125 L 283.691406 181.773438 C 286.84375 184.941406 286.84375 190.0625 283.691406 193.238281 L 271.023438 205.976562 C 268.992188 208.023438 268.195312 211.003906 268.933594 213.796875 L 273.535156 231.164062 C 274.683594 235.488281 272.117188 239.921875 267.804688 241.09375 L 250.464844 245.789062 C 247.675781 246.546875 245.5 248.722656 244.742188 251.511719 L 240.046875 268.851562 C 238.878906 273.167969 234.441406 275.726562 230.117188 274.582031 L 212.75 269.980469 C 209.957031 269.238281 206.984375 270.035156 204.933594 272.070312 L 192.191406 284.738281 C 189.023438 287.890625 183.902344 287.890625 180.726562 284.738281 L 167.984375 272.070312 C 165.941406 270.035156 162.960938 269.238281 160.167969 269.980469 L 142.800781 274.582031 C 138.476562 275.726562 134.042969 273.160156 132.871094 268.851562 L 128.175781 251.511719 C 127.417969 248.722656 125.242188 246.546875 122.453125 245.789062 L 105.113281 241.09375 C 100.796875 239.921875 98.238281 235.488281 99.382812 231.164062 L 103.984375 213.796875 C 104.726562 211.003906 103.929688 208.03125 101.894531 205.976562 L 89.226562 193.238281 C 86.074219 190.070312 86.074219 184.949219 89.226562 181.773438 L 101.894531 169.03125 C 103.929688 166.984375 104.726562 164.007812 103.984375 161.214844 L 99.382812 143.847656 C 98.238281 139.523438 100.800781 135.085938 105.113281 133.917969 L 122.453125 129.21875 C 125.242188 128.464844 127.417969 126.289062 128.175781 123.5 L 132.871094 106.160156 C 134.042969 101.84375 138.476562 99.28125 142.800781 100.429688 L 160.167969 105.03125 C 162.960938 105.769531 165.933594 104.972656 167.984375 102.9375 L 180.726562 90.273438 C 183.894531 87.121094 189.015625 87.121094 192.191406 90.273438 Z M 192.191406 90.273438 " fill-opacity="1" fill-rule="nonzero"/></g><path fill="#ffffff" d="M 167.464844 226.285156 C 165.503906 226.285156 163.542969 225.539062 162.050781 224.042969 L 137.8125 199.800781 C 134.820312 196.8125 134.820312 191.960938 137.8125 188.964844 C 140.800781 185.972656 145.648438 185.976562 148.640625 188.964844 L 167.464844 207.792969 L 224.277344 150.980469 C 227.269531 147.992188 232.117188 147.992188 235.113281 150.980469 C 238.101562 153.96875 238.101562 158.820312 235.113281 161.816406 L 172.886719 224.042969 C 171.386719 225.539062 169.433594 226.285156 167.472656 226.285156 Z M 167.464844 226.285156 " fill-opacity="1" fill-rule="nonzero"/></svg>